<svg xmlns="http://www.w3.org/2000/svg" width="1920" height="1280" viewBox="0 0 1920 1280" fill="none">
  <rect width="1920" height="1280" fill="#F7FAF3"/>
  <circle cx="1450" cy="250" r="240" fill="#E1FFB0"/>
  <circle cx="280" cy="1050" r="280" fill="#E8EFE0"/>
  <path d="M121 738C121 673.935 172.935 622 237 622H1123C1236.22 622 1328 713.784 1328 827V962H121V738Z" fill="#FFFFFF"/>
  <path d="M176 768C176 718.294 216.294 678 266 678H1042C1128.16 678 1198 747.843 1198 834V924H176V768Z" fill="#C7FF55"/>
  <path d="M214 790C214 754.654 242.654 726 278 726H1008C1075.38 726 1130 780.621 1130 848V924H214V790Z" fill="#152017"/>
</svg>

